PathFileType	4	(X/Y/Z)	52_2_18_p1_0-205_filt_butterworth.trc
DataRate	CameraRate	NumFrames	NumMarkers	Units	OrigDataRate	OrigDataStartFrame	OrigNumFrames
40.0	40.0	7	27	m	40.0	0	205
Frame#	Time	RHip			RKnee			RAnkle			RBigToe			RSmallToe			RHeel			LHip			LKnee			LAnkle			LBigToe			LSmallToe			LHeel			Neck			Head			Nose			RShoulder			RElbow			RWrist			RThumb			RIndex			RPinky			LShoulder			LElbow			LWrist			LThumb			LIndex			LPinky			
		X1	Y1	Z1	X2	Y2	Z2	X3	Y3	Z3	X4	Y4	Z4	X5	Y5	Z5	X6	Y6	Z6	X7	Y7	Z7	X8	Y8	Z8	X9	Y9	Z9	X10	Y10	Z10	X11	Y11	Z11	X12	Y12	Z12	X13	Y13	Z13	X14	Y14	Z14	X15	Y15	Z15	X16	Y16	Z16	X17	Y17	Z17	X18	Y18	Z18	X19	Y19	Z19	X20	Y20	Z20	X21	Y21	Z21	X22	Y22	Z22	X23	Y23	Z23	X24	Y24	Z24	X25	Y25	Z25	X26	Y26	Z26	X27	Y27	Z27	
0	0.0	0.2205146781013661	0.5553391503091897	0.4940616106207113	0.13569089517832061	0.6872435299726957	0.9232951349896714	0.032856639003829916	0.794815606678838	1.2668028921174306	0.005534471994733013	0.5983507831904356	1.2987052034040756	0.06213319242118352	0.6386985685453999	1.3266861592855257	-0.0027578140505890437	0.8926450093299689	1.3185773322777128	0.01284028220424127	0.5709394586824813	0.471205013972845	-0.08141462793585132	0.6843164004575994	0.8672796790380422	-0.15031926698485054	0.779743362644631	1.2176064986053878	-0.13727585453213853	0.6260195101843341	1.271178024771272	-0.19629560656186065	0.6545338784389456	1.2540948036357757	-0.14371992325335095	0.8286079500125915	1.275597706641983	0.2498919191427261	0.4229652342778579	-0.022187016368968877	0.30345004846778556	0.34752619051536104	-0.2579039895768512	0.2716642346238073	0.326113181065234	-0.11578179898111624	0.3675882277783868	0.4257844819996126	0.10372390924061851	0.3412236054579491	0.4601593995801918	0.35414383458681564	0.17641337056124665	0.3996477337172441	0.5084181414794415	0.0736996441118324	0.4000295716620986	0.5883038722101197	0.0707137904744291	0.4258142013192395	0.5931399219917883	0.08727034619174799	0.41524075539339866	0.6034229344603246	0.07931598883472954	0.4404317517481467	0.01383485085525345	6.34054212890105e-05	0.4511843188030721	0.2730187593313023	0.05826661621940561	0.40760420812853515	0.4880015061231737	0.11287124190423171	0.389518016347673	0.583203619507802	0.10446965792713003	0.39162005485430995	0.5990437474941062	0.07963283270667915	0.4128165445565046	0.5931754876568052
1	0.025	0.2217365762119627	0.5567605358260399	0.49281496015182286	0.13658125912122326	0.6719473652450525	0.9201071917977945	0.032807922540346555	0.7948782974566534	1.2669979006881185	0.005431813258932036	0.5988142782195266	1.298989449370639	0.06397897762991715	0.6334956317881595	1.3249468348689286	-0.0029859977002712054	0.8926737808780046	1.3191265187724062	0.015241640576818578	0.5702160763997477	0.46348175337053144	-0.08141300610221412	0.684078368589348	0.8671096965157072	-0.14732462350508438	0.7739944382612737	1.2200588841609596	-0.13722060317045265	0.6263097495234611	1.2713045151829836	-0.19558980876127047	0.655653898423314	1.253841833472584	-0.14404445329714696	0.829307776614608	1.2763031865230428	0.24995060518885193	0.4229405588873737	-0.022285582630476766	0.30339499151047533	0.3473976930578201	-0.2579454294648403	0.2714859695798718	0.3259310172563138	-0.11568572277962161	0.3685249854344522	0.4455554430508743	0.1001918934633802	0.3416799162676383	0.4610492863619723	0.35442297873713513	0.1745055104295136	0.40570076174574177	0.5087042057424808	0.07615371568496627	0.40256884184768815	0.586615042922643	0.07080217896504361	0.42577000535393594	0.592934398645969	0.08774297085372813	0.4148179474635293	0.6008945738887932	0.08148156761772488	0.4504136071581188	0.013645219236568258	0.0012697555231510442	0.45081101294455184	0.26825641149591584	0.05764662607405906	0.404343890164644	0.4875591662968808	0.11569562919096316	0.3899583232525722	0.580744569714631	0.10753192211384313	0.39311327303422433	0.599913441437109	0.07967349696949527	0.4125963219216259	0.5929737479031029
2	0.05	0.22205426669746453	0.5573571177416371	0.4934669078942816	0.13606571840916362	0.6773462978121809	0.9225346181567047	0.03278345649704158	0.7948056919302868	1.2668211019959308	0.005390872540586251	0.5989290166941117	1.2990823019633149	0.06507793245069503	0.6309965788242585	1.324157547371241	-0.0030993941000644104	0.8927595121199732	1.3193779261831806	0.015505822818258318	0.5702322142380032	0.46236707976153124	-0.08154403856234468	0.6848367063983196	0.8687727915425432	-0.14851297938488878	0.7775405429014869	1.2225057091150366	-0.1372239959530178	0.6264379301357021	1.271325965486394	-0.19607471142558325	0.6570710940081479	1.2568217458848867	-0.14431704346835625	0.8295324141142428	1.2766818001890352	0.24997317500815908	0.42293460419059054	-0.022321857361475305	0.3033666125167972	0.34735388095318337	-0.2579597563366416	0.2715885533589891	0.32652864048350316	-0.11548764541628562	0.36891323825905076	0.4528858312548806	0.09888893996857044	0.3419934367016819	0.4614952070472085	0.3544212124268446	0.17438429400046956	0.401416149061037	0.5086979833301509	0.07536375152346611	0.4076723893619039	0.5863552130274206	0.07081646721023949	0.42568374792992647	0.592984712319123	0.08790836279587377	0.4153021358274521	0.6014279199064162	0.0822558500679899	0.4541065667748553	0.013605867651213731	0.0010752853919834006	0.4508399917573161	0.26886748899422375	0.05736482494521542	0.4025139039998212	0.48735924000706615	0.11683945200048718	0.39013479054276184	0.5798666667186365	0.10864185971229964	0.39371719551366285	0.6002973179817018	0.0796861236087065	0.4125180529211379	0.593003896833038
3	0.075	0.22196180732702894	0.5573494260764079	0.4935018359619589	0.1351974070054744	0.6888754836701341	0.9257249363042137	0.032762800737450685	0.7948737098253746	1.2668260454239972	0.005329730994435604	0.5987946125211621	1.2990867450707653	0.06359616073156313	0.6342475535664263	1.3252266729705537	-0.0031209278492457097	0.8928485570395521	1.3193945532814455	0.0146443358503936	0.571195671398949	0.46572930189170203	-0.08176321798316438	0.6862877392395503	0.8715646411942822	-0.15080170832753736	0.7830741103655101	1.2237370232240012	-0.13726164401608595	0.6264532989784936	1.2712790310439837	-0.19677512291402052	0.6577979249952983	1.259798290477163	-0.14443657310962343	0.8294467958142103	1.2767631628868628	0.24997117379205572	0.42294695473174126	-0.022325019848442096	0.30336528221476333	0.3473726854589835	-0.2579498942389692	0.2715987135661762	0.326509675975299	-0.11526201546898879	0.36888308577727374	0.4516497828648338	0.09910601999246423	0.34191152742828557	0.46174724801461264	0.3543415787792346	0.17409798082498593	0.3979573483596766	0.5086618704432267	0.07358670146321	0.41140357242136405	0.5868124263272076	0.07077318095455606	0.425758879628648	0.5930135195790313	0.08775976454645099	0.4162387753521599	0.6038823474355762	0.08209065817808259	0.4534761556612058	0.013673296588919436	0.0002467707057430885	0.45108681674125034	0.27218967919630266	0.05720655252071907	0.4011991667300028	0.48723816701133815	0.11585720573573002	0.38981160434028717	0.5798334098106144	0.10851497069275487	0.39376824459955373	0.600343468317347	0.07969113234133232	0.4125551001397638	0.5932004427531046
4	0.1	0.22183996161503877	0.5572938921231995	0.4921154531214199	0.13497738077480442	0.6913323201559258	0.9256132038373743	0.032685640790576266	0.7957364812211806	1.268332686027336	0.005215234853984273	0.5987551783386638	1.2991812000116512	0.0603525577997762	0.6383971115712189	1.3264525472761766	-0.003123844835274192	0.8928581143694894	1.319377834743747	0.014264524411870766	0.5724375461765168	0.4686107361615282	-0.08187947929655663	0.6871821315424347	0.8731542801856558	-0.15118989130280186	0.7838830610044507	1.2236774944897633	-0.1372831966519158	0.6264473257670353	1.2712377868795774	-0.19684028870608783	0.6575272586575034	1.2599747180704792	-0.14447367005859665	0.82934009535356	1.2768070945966956	0.2499694446054767	0.42296098312157326	-0.022333769354912117	0.303384866772479	0.3473868491535752	-0.25793947751497065	0.27066039827994787	0.32274162619735125	-0.11514728795206089	0.3688001198903011	0.45037413428136586	0.09931368084079091	0.34080253766560514	0.46172175417830286	0.3544909256617549	0.17323678659315017	0.3989528542266773	0.5082131080100232	0.0732106613463154	0.41176188867404173	0.5868525672734233	0.0707173643190654	0.4264100576205597	0.5923337117573517	0.08746818811991709	0.41666172515617733	0.6052457601502395	0.08195403164657736	0.4528412107294273	0.01371631356010596	-0.00011196735246671691	0.4511873264775258	0.27380604434654254	0.056768847663931594	0.3986790332118284	0.48688114068685173	0.11459610275098805	0.38941733145490365	0.5797901000337851	0.10817620630199563	0.39359239811392244	0.6002633195558583	0.0796776906271639	0.41250302866824484	0.5933132807588735
5	0.125	0.2218115303354961	0.5573406510355912	0.4920554410613721	0.1350570907559383	0.6895708545032295	0.9253953271238262	0.03256663599437251	0.7971635292842929	1.2709243370912493	0.005126877645258083	0.5988844860894824	1.2993299525529929	0.05861468603704823	0.6391386693956378	1.3266430507794549	-0.003107714417855483	0.8928624457566474	1.3193357392764755	0.014354549781673958	0.573044609027202	0.46962674088729356	-0.081871221172635	0.6871984051210422	0.8730997737283979	-0.15080319312660181	0.782912693523052	1.2234655831397727	-0.13728755550695743	0.626353260407716	1.2712057334547104	-0.19672013099099983	0.6572175420236768	1.2581316472763504	-0.14457205487615135	0.8292164174074259	1.2767857289266007	0.24997075421843967	0.4229636055351771	-0.022339149231189036	0.3034137162296678	0.3473772432926792	-0.2579399632238863	0.2692961109560156	0.3173028358378026	-0.11517821842623133	0.3687693877859026	0.4505565558221362	0.09926102891982296	0.3389150904108109	0.46091793885022014	0.35426748233802086	0.173346415660765	0.3942327446091629	0.507078792656011	0.07376273204610007	0.4112635604260059	0.5864273480472921	0.07048936836017058	0.4262567985329178	0.5911029251039311	0.08725845464081543	0.4166553064243387	0.6051447266627603	0.08199250074412258	0.4529321686463151	0.013694126447590712	3.5293717730630675e-05	0.4511198336423561	0.27347788433435016	0.0568442680269709	0.399089060712964	0.48690729672736244	0.11442594316438784	0.38940110947615975	0.579792539037224	0.10707220608497006	0.3928814984628556	0.5999366456769302	0.07963177721115272	0.4123082700811117	0.5933032252444468
6	0.15	0.22261968387560624	0.5573876529563908	0.49317946792491596	0.13521676415425404	0.689146312701501	0.9261495823252259	0.0325052148654063	0.7980097857687454	1.2724547648815026	0.005112070595118753	0.5990146049817747	1.2994109464237256	0.06017185574863322	0.6389974885423482	1.3267331699832305	-0.003050144997665582	0.8929729325525795	1.3192073381706997	0.014433571857545726	0.572956605291367	0.46940034386648044	-0.08196287564076385	0.6870215817054492	0.8727942506707738	-0.1506954413898648	0.7826728506219783	1.2235105335671241	-0.1372879149532749	0.6260900002531028	1.2711735352723847	-0.19673014518114357	0.6573413437931318	1.256162421029678	-0.14453665172511376	0.8290688259693461	1.2765048277515045	0.2499748508951269	0.4229347767724782	-0.022332122544054124	0.30342813055252854	0.3473670017057608	-0.25794510769566514	0.26936399988733106	0.3173224681061337	-0.1153639779721235	0.36875210520392787	0.45075360828882693	0.099219139822856	0.33767829299614904	0.45973889562548875	0.352700476359771	0.1740706574428671	0.3861502589021836	0.5061179185065197	0.0741681449034561	0.41120284260693407	0.5859297220194757	0.0697412874313103	0.42228137921556885	0.5903607227957395	0.08729100745942744	0.41662739071529	0.6049596049970434	0.08202494548345643	0.4529990459863257	0.013645927972812086	0.0005292601554489055	0.45101933144685424	0.2721705692259997	0.057849935548615866	0.40439729949023007	0.4876801961134769	0.11477596085945756	0.38956554448134717	0.5797039798780955	0.10533371571825684	0.39194247580030317	0.5994861892878166	0.07959365130324092	0.41219084270884143	0.593327423454719
